<svg width="26" height="25" viewBox="0 0 26 25" fill="none" xmlns="http://www.w3.org/2000/svg">
<path d="M12.4724 12.4719C14.6037 12.4719 16.1502 11.4214 16.945 9.43398C17.5548 7.90868 17.6371 6.10941 17.6371 4.5505C17.6371 1.70112 15.7064 0 12.4724 0C9.23847 0 7.30774 1.70108 7.30774 4.5505C7.30774 6.10941 7.39001 7.90868 7.99989 9.43398C8.79464 11.4214 10.3412 12.4719 12.4724 12.4719Z" fill="white"/>
<path d="M14.3892 13.8181H10.5261C6.82685 13.8181 3.81738 16.8276 3.81738 20.5268V20.9853C3.81738 23.199 5.61832 25 7.83206 25H17.0833C19.297 25 21.098 23.199 21.098 20.9853V20.5268C21.0979 16.8276 18.0884 13.8181 14.3892 13.8181Z" fill="white"/>
<path d="M19.2004 4.55052C19.2004 7.14991 18.9414 9.99982 17.2153 11.9875C17.6458 12.1564 18.1282 12.2429 18.6589 12.2429C20.2732 12.2429 21.4446 11.4474 22.0464 9.94232C22.4939 8.82309 22.5543 7.51802 22.5543 6.38897C22.5543 4.40835 21.297 3.06493 19.0195 2.94006C19.1392 3.44614 19.2004 3.9844 19.2004 4.55052Z" fill="white"/>
<path d="M6.37509 12.2429C6.87837 12.2429 7.33853 12.1656 7.75187 12.0136C6.00351 10.0233 5.74439 7.14719 5.74439 4.55059C5.74439 3.98662 5.80516 3.45026 5.92397 2.9458C3.82406 3.09217 2.47961 4.32254 2.47961 6.38899C2.47961 7.51799 2.53995 8.82311 2.98749 9.94239C3.58937 11.4475 4.76073 12.2429 6.37509 12.2429Z" fill="white"/>
<path d="M2.25405 20.5268C2.25405 17.5136 3.87368 14.8718 6.28797 13.4257H4.99233C2.23959 13.4257 0 15.6652 0 18.418V18.7437C0 20.1734 0.979657 21.3784 2.3029 21.7231C2.24486 21.2859 2.25405 21.0189 2.25405 20.5268Z" fill="white"/>
<path d="M20.0207 13.4257H18.6281C21.042 14.872 22.6612 17.5139 22.6612 20.5268C22.6612 21.0143 22.6711 21.2941 22.609 21.7469C23.983 21.4384 25.013 20.2095 25.013 18.7437V18.418C25.013 15.6652 22.7734 13.4257 20.0207 13.4257Z" fill="white"/>
</svg>
