<svg width="31" height="25" viewBox="0 0 31 25" fill="none" xmlns="http://www.w3.org/2000/svg">
<path d="M18.0025 0H12.216C11.6242 0 11.1444 0.47977 11.1444 1.07158V23.9212C11.1444 24.513 11.6242 24.9928 12.216 24.9928H18.0025C18.5943 24.9928 19.0741 24.513 19.0741 23.9212V1.07158C19.0741 0.4797 18.5943 0 18.0025 0Z" fill="white"/>
<path d="M29.1827 13.3234H23.3962C22.8044 13.3234 22.3246 13.8031 22.3246 14.3949V23.9285C22.3246 24.5203 22.8044 25 23.3962 25H29.1827C29.7745 25 30.2543 24.5203 30.2543 23.9285V14.3949C30.2543 13.8031 29.7745 13.3234 29.1827 13.3234Z" fill="white"/>
<path d="M6.85812 8.53699H1.07158C0.47977 8.53699 0 9.01676 0 9.60857V23.9142C0 24.506 0.47977 24.9858 1.07158 24.9858H6.85812C7.44993 24.9858 7.9297 24.506 7.9297 23.9142V9.60857C7.9297 9.01676 7.44993 8.53699 6.85812 8.53699Z" fill="white"/>
</svg>
