<svg width="25" height="25" viewBox="0 0 25 25" fill="none" xmlns="http://www.w3.org/2000/svg">
<path d="M5.68184 0C5.22977 0 4.79621 0.179586 4.47654 0.49925C4.15688 0.818914 3.97729 1.25247 3.97729 1.70455V5.11364C3.97729 5.26433 4.03716 5.40885 4.14371 5.5154C4.25027 5.62196 4.39479 5.68182 4.54548 5.68182H7.95457C8.10526 5.68182 8.24978 5.62196 8.35633 5.5154C8.46289 5.40885 8.52275 5.26433 8.52275 5.11364V1.70455C8.52275 1.25247 8.34316 0.818914 8.0235 0.49925C7.70384 0.179586 7.27028 0 6.8182 0H5.68184Z" fill="white"/>
<path d="M18.1818 0C17.7298 0 17.2962 0.179586 16.9765 0.49925C16.6569 0.818914 16.4773 1.25247 16.4773 1.70455V5.11364C16.4773 5.26433 16.5372 5.40885 16.6437 5.5154C16.7503 5.62196 16.8948 5.68182 17.0455 5.68182H20.4546C20.6053 5.68182 20.7498 5.62196 20.8563 5.5154C20.9629 5.40885 21.0227 5.26433 21.0227 5.11364V1.70455C21.0227 1.25247 20.8432 0.818914 20.5235 0.49925C20.2038 0.179586 19.7703 0 19.3182 0H18.1818Z" fill="white"/>
<path d="M22.1591 2.84094V5.11367C22.1591 5.56574 21.9795 5.9993 21.6598 6.31897C21.3402 6.63863 20.9066 6.81821 20.4545 6.81821H17.0455C16.5934 6.81821 16.1598 6.63863 15.8402 6.31897C15.5205 5.9993 15.3409 5.56574 15.3409 5.11367V2.84094H9.65909V5.11367C9.65909 5.56574 9.4795 5.9993 9.15984 6.31897C8.84018 6.63863 8.40662 6.81821 7.95454 6.81821H4.54545C4.09338 6.81821 3.65982 6.63863 3.34016 6.31897C3.02049 5.9993 2.84091 5.56574 2.84091 5.11367V2.84094C2.08745 2.84094 1.36486 3.14025 0.832083 3.67303C0.299309 4.2058 0 4.9284 0 5.68185V7.95458H25V5.68185C25 4.9284 24.7007 4.2058 24.1679 3.67303C23.6351 3.14025 22.9125 2.84094 22.1591 2.84094Z" fill="white"/>
<path d="M0 22.1591C0 22.9126 0.299309 23.6352 0.832083 24.1679C1.36486 24.7007 2.08745 25 2.84091 25H22.1591C22.9125 25 23.6351 24.7007 24.1679 24.1679C24.7007 23.6352 25 22.9126 25 22.1591V9.09094H0V22.1591ZM15.7443 13.4716C15.6913 13.5246 15.6284 13.5666 15.5592 13.5953C15.49 13.624 15.4158 13.6387 15.3409 13.6387C15.266 13.6387 15.1918 13.624 15.1226 13.5953C15.0534 13.5666 14.9905 13.5246 14.9375 13.4716C14.8845 13.4186 14.8425 13.3558 14.8138 13.2865C14.7852 13.2173 14.7704 13.1431 14.7704 13.0682C14.7704 12.9933 14.7852 12.9191 14.8138 12.8499C14.8425 12.7807 14.8845 12.7178 14.9375 12.6648L16.0739 11.5284C16.1538 11.4496 16.2552 11.3962 16.3654 11.375C16.4757 11.3537 16.5897 11.3656 16.6932 11.4091C16.7969 11.4517 16.8858 11.5241 16.9485 11.6172C17.0111 11.7102 17.0449 11.8197 17.0455 11.9319V20.4546H17.6136C17.7643 20.4546 17.9088 20.5144 18.0154 20.621C18.122 20.7275 18.1818 20.8721 18.1818 21.0228C18.1818 21.1735 18.122 21.318 18.0154 21.4245C17.9088 21.5311 17.7643 21.5909 17.6136 21.5909H15.3409C15.1902 21.5909 15.0457 21.5311 14.9391 21.4245C14.8326 21.318 14.7727 21.1735 14.7727 21.0228C14.7727 20.8721 14.8326 20.7275 14.9391 20.621C15.0457 20.5144 15.1902 20.4546 15.3409 20.4546H15.9091V13.3012L15.7443 13.4716ZM10.2273 17.0455H7.38636C7.23567 17.0455 7.09115 16.9856 6.9846 16.8791C6.87804 16.7725 6.81818 16.628 6.81818 16.4773C6.81818 16.3266 6.87804 16.1821 6.9846 16.0755C7.09115 15.969 7.23567 15.9091 7.38636 15.9091H10.2273C10.378 15.9091 10.5225 15.8493 10.629 15.7427C10.7356 15.6362 10.7955 15.4916 10.7955 15.3409V13.0682C10.7955 12.9175 10.7356 12.773 10.629 12.6664C10.5225 12.5599 10.378 12.5 10.2273 12.5H7.38636C7.23567 12.5 7.09115 12.4402 6.9846 12.3336C6.87804 12.2271 6.81818 12.0825 6.81818 11.9319C6.81818 11.7812 6.87804 11.6366 6.9846 11.5301C7.09115 11.4235 7.23567 11.3637 7.38636 11.3637H10.2273C10.6793 11.3637 11.1129 11.5433 11.4326 11.8629C11.7522 12.1826 11.9318 12.6161 11.9318 13.0682V15.3409C11.9309 15.7607 11.7751 16.1653 11.4943 16.4773C11.7751 16.7893 11.9309 17.1939 11.9318 17.6137V19.8864C11.9318 20.3385 11.7522 20.772 11.4326 21.0917C11.1129 21.4114 10.6793 21.5909 10.2273 21.5909H7.38636C7.23567 21.5909 7.09115 21.5311 6.9846 21.4245C6.87804 21.318 6.81818 21.1735 6.81818 21.0228C6.81818 20.8721 6.87804 20.7275 6.9846 20.621C7.09115 20.5144 7.23567 20.4546 7.38636 20.4546H10.2273C10.378 20.4546 10.5225 20.3947 10.629 20.2882C10.7356 20.1816 10.7955 20.0371 10.7955 19.8864V17.6137C10.7955 17.463 10.7356 17.3185 10.629 17.2119C10.5225 17.1053 10.378 17.0455 10.2273 17.0455Z" fill="white"/>
</svg>
